<svg xmlns="http://www.w3.org/2000/svg" viewBox="0 0 172.22 137.66"><title>Asset 1</title><g id="Layer_2" data-name="Layer 2"><g id="Layer_1-2" data-name="Layer 1"><path d="M36.19,116.31a4,4,0,0,1-2.29-.72A4,4,0,0,1,32.25,113L17.84,31.27a4,4,0,0,1,3.25-4.63l128-22.58a4,4,0,0,1,4.64,3.25l14.41,81.74a4,4,0,0,1-3.25,4.63l-128,22.57A4,4,0,0,1,36.19,116.31Z" style="fill:#fff"/><path d="M149.81,8l14.41,81.74-128,22.57L21.78,30.58,149.81,8m0-8a8.27,8.27,0,0,0-1.4.12L20.39,22.7A8,8,0,0,0,13.9,32L28.32,113.7a8,8,0,0,0,7.87,6.61,8.07,8.07,0,0,0,1.39-.12l128-22.57a8,8,0,0,0,6.49-9.27L157.68,6.61A8,8,0,0,0,149.82,0Z" style="fill:#ef8400"/><rect x="4" y="42.66" width="138" height="91" rx="4" style="fill:#fff"/><path d="M138,46.66v83H8v-83H138m0-8H8a8,8,0,0,0-8,8v83a8,8,0,0,0,8,8H138a8,8,0,0,0,8-8v-83a8,8,0,0,0-8-8Z" style="fill:#ef8400"/><path d="M72.56,74.2l-6,28H59.33l6-28ZM103,92.27l3.81-10.51L109,92.27Zm8.08,9.92h6.7L112,74.2h-6.18a3.28,3.28,0,0,0-3.08,2L91.84,102.19h7.6L101,98h9.29ZM92.21,93.05c0-7.38-10.22-7.79-10.15-11.1,0-1,1-2.07,3.08-2.34a13.64,13.64,0,0,1,7.14,1.25l1.27-5.93a19.28,19.28,0,0,0-6.77-1.25c-7.17,0-12.2,3.81-12.25,9.26,0,4,3.6,6.28,6.35,7.62s3.76,2.25,3.75,3.48c0,1.88-2.24,2.71-4.33,2.74A15.27,15.27,0,0,1,72.86,95l-1.31,6.14a22,22,0,0,0,8,1.48c7.61,0,12.59-3.75,12.61-9.58m-30-18.85-11.74,28H42.82L37,79.85a3,3,0,0,0-1.72-2.46A30.16,30.16,0,0,0,28.18,75l.17-.81H40.67A3.38,3.38,0,0,1,44,77.05l3,16.2,7.54-19Z" style="fill:#2e296c"/></g></g></svg>