<svg xmlns="http://www.w3.org/2000/svg" xmlns:xlink="http://www.w3.org/1999/xlink" viewBox="0 0 32.27 27.32"><defs><clipPath id="clip-path" transform="translate(0 0.02)"><path d="M28.48.64l-6.7,4L3.66.35,1.22,2.83,15,8.79,6.45,13.92l-5-3.27L0,12.2l5.12,6.14a2.39,2.39,0,0,0,3.09.56l3-1.84L30.8,5.27a2.7,2.7,0,0,0,.83-3.51A2.25,2.25,0,0,0,28.48.64Z" style="fill:none"/></clipPath></defs><title>icon_air_ticket_insurance</title><g id="Layer_2" data-name="Layer 2"><g id="Layer_1-2" data-name="Layer 1"><g style="clip-path:url(#clip-path)"><path d="M0,0V0Z" transform="translate(0 0.02)" style="fill:#fa9b00"/><rect width="0.68" height="19.54" style="fill:#fa9b00"/><rect x="0.68" width="0.68" height="19.54" style="fill:#fa9c00"/><rect x="1.36" width="0.68" height="19.54" style="fill:#fa9d01"/><rect x="2.04" width="0.68" height="19.54" style="fill:#fa9e01"/><rect x="2.72" width="0.68" height="19.54" style="fill:#fa9e01"/><rect x="3.4" width="0.68" height="19.54" style="fill:#f99f02"/><rect x="4.08" width="0.68" height="19.54" style="fill:#f9a002"/><rect x="4.76" width="0.68" height="19.54" style="fill:#f9a102"/><rect x="5.44" width="0.68" height="19.54" style="fill:#f9a203"/><rect x="6.12" width="0.68" height="19.54" style="fill:#f9a303"/><rect x="6.8" width="0.68" height="19.54" style="fill:#f9a404"/><rect x="7.48" width="0.68" height="19.54" style="fill:#f9a504"/><rect x="8.16" width="0.68" height="19.54" style="fill:#f9a604"/><rect x="8.84" width="0.68" height="19.54" style="fill:#f8a705"/><rect x="9.52" width="0.68" height="19.54" style="fill:#f8a805"/><rect x="10.2" width="0.68" height="19.54" style="fill:#f8a905"/><rect x="10.88" width="0.68" height="19.54" style="fill:#f8aa06"/><rect x="11.56" width="0.68" height="19.54" style="fill:#f8ab06"/><rect x="12.24" width="0.68" height="19.54" style="fill:#f8ac07"/><rect x="12.92" width="0.68" height="19.54" style="fill:#f8ad07"/><rect x="13.59" width="0.68" height="19.54" style="fill:#f8ae07"/><rect x="14.27" width="0.68" height="19.54" style="fill:#f7af08"/><rect x="14.95" width="0.68" height="19.54" style="fill:#f7b008"/><rect x="15.63" width="0.68" height="19.54" style="fill:#f7b109"/><rect x="16.31" width="0.68" height="19.54" style="fill:#f7b309"/><rect x="16.99" width="0.68" height="19.54" style="fill:#f7b409"/><rect x="17.67" width="0.68" height="19.54" style="fill:#f7b50a"/><rect x="18.35" width="0.68" height="19.54" style="fill:#f7b60a"/><rect x="19.03" width="0.68" height="19.54" style="fill:#f6b70b"/><rect x="19.71" width="0.68" height="19.54" style="fill:#f6b80b"/><rect x="20.39" width="0.68" height="19.54" style="fill:#f6b90b"/><rect x="21.07" width="0.68" height="19.54" style="fill:#f6ba0c"/><rect x="21.75" width="0.68" height="19.54" style="fill:#f6bb0c"/><rect x="22.43" width="0.68" height="19.54" style="fill:#f6bc0d"/><rect x="23.11" width="0.68" height="19.54" style="fill:#f6bd0d"/><rect x="23.79" width="0.68" height="19.54" style="fill:#f6be0d"/><rect x="24.47" width="0.68" height="19.54" style="fill:#f5bf0e"/><rect x="25.15" width="0.68" height="19.54" style="fill:#f5c00e"/><rect x="25.83" width="0.68" height="19.54" style="fill:#f5c10f"/><rect x="26.51" width="0.68" height="19.54" style="fill:#f5c20f"/><rect x="27.19" width="0.68" height="19.54" style="fill:#f5c410"/><rect x="27.87" width="0.68" height="19.54" style="fill:#f5c510"/><rect x="28.55" width="0.68" height="19.54" style="fill:#f5c610"/><rect x="29.23" width="0.68" height="19.54" style="fill:#f4c711"/><rect x="29.91" width="0.68" height="19.54" style="fill:#f4c811"/><rect x="30.59" width="0.68" height="19.54" style="fill:#f4c912"/><rect x="31.27" width="0.68" height="19.54" style="fill:#f4ca12"/><rect x="31.95" width="0.33" height="19.54" style="fill:#f4ca12"/></g><rect x="2.52" y="25.05" width="15.87" height="2.27" style="fill:#1a1f71"/><path d="M25.5,26.21S19.91,23,19.91,19.84V14.62H31.09v5.22C31.09,22.8,25.5,26.21,25.5,26.21Z" transform="translate(0 0.02)" style="fill:#1a1f71"/><path d="M25.5,27.06a.81.81,0,0,1-.42-.12c-.62-.35-6-3.58-6-7.1V14.62a.85.85,0,0,1,.85-.85H31.09a.85.85,0,0,1,.86.85v5.22c0,3.35-5.39,6.72-6,7.09A.81.81,0,0,1,25.5,27.06ZM20.76,15.47v4.37c0,1.95,3.15,4.35,4.74,5.36,2-1.3,4.74-3.68,4.74-5.36V15.47Z" transform="translate(0 0.02)" style="fill:#1a1f71"/><rect y="0.02" width="31.95" height="27.3" style="fill:none"/><rect x="21.99" y="18.45" width="7.03" height="1.71" style="fill:#fff"/><rect x="24.65" y="15.78" width="1.71" height="7.03" style="fill:#fff"/></g></g></svg>