<svg xmlns="http://www.w3.org/2000/svg" xmlns:xlink="http://www.w3.org/1999/xlink" viewBox="0 0 34.15 27.3"><defs><clipPath id="clip-path"><path d="M27.52,19.45a13.16,13.16,0,0,1-10.44,5.23c-7.49,0-10.45-5.23-10.45-5.23V10H28" style="fill:none"/></clipPath><clipPath id="clip-path-2"><path d="M16.55,18.42,1.08,10a1.1,1.1,0,0,1,.06-2L16.6.62a1.13,1.13,0,0,1,.95,0L33,8a1.1,1.1,0,0,1,.06,2L17.6,18.42A1.09,1.09,0,0,1,16.55,18.42Z" style="fill:none"/></clipPath></defs><title>icon_career</title><g id="Layer_2" data-name="Layer 2"><g id="Layer_1-2" data-name="Layer 1"><g style="clip-path:url(#clip-path)"><path d="M6.63,10v0Z" style="fill:#fa9b00"/><rect x="6.63" y="10.03" width="0.45" height="14.65" style="fill:#fa9b00"/><rect x="7.08" y="10.03" width="0.45" height="14.65" style="fill:#fa9c00"/><rect x="7.54" y="10.03" width="0.45" height="14.65" style="fill:#fa9d01"/><rect x="7.99" y="10.03" width="0.45" height="14.65" style="fill:#fa9e01"/><rect x="8.44" y="10.03" width="0.45" height="14.65" style="fill:#fa9f01"/><rect x="8.9" y="10.03" width="0.45" height="14.65" style="fill:#f9a002"/><rect x="9.35" y="10.03" width="0.45" height="14.65" style="fill:#f9a002"/><rect x="9.8" y="10.03" width="0.45" height="14.65" style="fill:#f9a102"/><rect x="10.26" y="10.03" width="0.45" height="14.65" style="fill:#f9a203"/><rect x="10.71" y="10.03" width="0.45" height="14.65" style="fill:#f9a303"/><rect x="11.17" y="10.03" width="0.45" height="14.65" style="fill:#f9a404"/><rect x="11.62" y="10.03" width="0.45" height="14.65" style="fill:#f9a504"/><rect x="12.07" y="10.03" width="0.45" height="14.65" style="fill:#f9a604"/><rect x="12.53" y="10.03" width="0.45" height="14.65" style="fill:#f8a705"/><rect x="12.98" y="10.03" width="0.45" height="14.65" style="fill:#f8a805"/><rect x="13.43" y="10.03" width="0.45" height="14.65" style="fill:#f8a906"/><rect x="13.89" y="10.03" width="0.45" height="14.65" style="fill:#f8aa06"/><rect x="14.34" y="10.03" width="0.45" height="14.65" style="fill:#f8ab06"/><rect x="14.8" y="10.03" width="0.45" height="14.65" style="fill:#f8ac07"/><rect x="15.25" y="10.03" width="0.45" height="14.65" style="fill:#f8ad07"/><rect x="15.7" y="10.03" width="0.45" height="14.65" style="fill:#f8ae07"/><rect x="16.16" y="10.03" width="0.45" height="14.65" style="fill:#f7b008"/><rect x="16.61" y="10.03" width="0.45" height="14.65" style="fill:#f7b108"/><rect x="17.07" y="10.03" width="0.45" height="14.65" style="fill:#f7b209"/><rect x="17.52" y="10.03" width="0.45" height="14.65" style="fill:#f7b309"/><rect x="17.97" y="10.03" width="0.45" height="14.65" style="fill:#f7b409"/><rect x="18.43" y="10.03" width="0.45" height="14.65" style="fill:#f7b50a"/><rect x="18.88" y="10.03" width="0.45" height="14.65" style="fill:#f7b60a"/><rect x="19.33" y="10.03" width="0.45" height="14.65" style="fill:#f6b70b"/><rect x="19.79" y="10.03" width="0.45" height="14.65" style="fill:#f6b80b"/><rect x="20.24" y="10.03" width="0.45" height="14.65" style="fill:#f6b90b"/><rect x="20.7" y="10.03" width="0.45" height="14.65" style="fill:#f6ba0c"/><rect x="21.15" y="10.03" width="0.45" height="14.65" style="fill:#f6bb0c"/><rect x="21.6" y="10.03" width="0.45" height="14.65" style="fill:#f6bc0d"/><rect x="22.06" y="10.03" width="0.45" height="14.65" style="fill:#f6bd0d"/><rect x="22.51" y="10.03" width="0.45" height="14.65" style="fill:#f6be0d"/><rect x="22.97" y="10.03" width="0.45" height="14.65" style="fill:#f5bf0e"/><rect x="23.42" y="10.03" width="0.45" height="14.65" style="fill:#f5c00e"/><rect x="23.87" y="10.03" width="0.45" height="14.65" style="fill:#f5c10f"/><rect x="24.33" y="10.03" width="0.45" height="14.65" style="fill:#f5c20f"/><rect x="24.78" y="10.03" width="0.45" height="14.65" style="fill:#f5c410"/><rect x="25.23" y="10.03" width="0.45" height="14.65" style="fill:#f5c510"/><rect x="25.69" y="10.03" width="0.45" height="14.65" style="fill:#f5c610"/><rect x="26.14" y="10.03" width="0.45" height="14.65" style="fill:#f4c711"/><rect x="26.6" y="10.03" width="0.45" height="14.65" style="fill:#f4c811"/><rect x="27.05" y="10.03" width="0.45" height="14.65" style="fill:#f4c912"/><rect x="27.5" y="10.03" width="0.45" height="14.65" style="fill:#f4ca12"/><path d="M28,24.68v0Z" style="fill:#f4ca12"/></g><g style="clip-path:url(#clip-path-2)"><rect x="0.3" y="0.48" width="0.21" height="18.12" style="fill:#fa9b00"/><rect x="0.51" y="0.48" width="0.7" height="18.12" style="fill:#fa9b00"/><rect x="1.22" y="0.48" width="0.7" height="18.12" style="fill:#fa9c00"/><rect x="1.92" y="0.48" width="0.7" height="18.12" style="fill:#fa9d01"/><rect x="2.63" y="0.48" width="0.7" height="18.12" style="fill:#fa9e01"/><rect x="3.33" y="0.48" width="0.7" height="18.12" style="fill:#fa9f01"/><rect x="4.04" y="0.48" width="0.7" height="18.12" style="fill:#f9a002"/><rect x="4.74" y="0.48" width="0.7" height="18.12" style="fill:#f9a002"/><rect x="5.45" y="0.48" width="0.7" height="18.12" style="fill:#f9a102"/><rect x="6.15" y="0.48" width="0.7" height="18.12" style="fill:#f9a203"/><rect x="6.86" y="0.48" width="0.7" height="18.12" style="fill:#f9a303"/><rect x="7.56" y="0.48" width="0.7" height="18.12" style="fill:#f9a404"/><rect x="8.27" y="0.48" width="0.7" height="18.12" style="fill:#f9a504"/><rect x="8.97" y="0.48" width="0.7" height="18.12" style="fill:#f9a604"/><rect x="9.68" y="0.48" width="0.7" height="18.12" style="fill:#f8a705"/><rect x="10.38" y="0.48" width="0.7" height="18.12" style="fill:#f8a805"/><rect x="11.09" y="0.48" width="0.7" height="18.12" style="fill:#f8a906"/><rect x="11.79" y="0.48" width="0.7" height="18.12" style="fill:#f8aa06"/><rect x="12.49" y="0.48" width="0.7" height="18.12" style="fill:#f8ab06"/><rect x="13.2" y="0.48" width="0.7" height="18.12" style="fill:#f8ac07"/><rect x="13.9" y="0.48" width="0.7" height="18.12" style="fill:#f8ad07"/><rect x="14.61" y="0.48" width="0.7" height="18.12" style="fill:#f8ae07"/><rect x="15.31" y="0.48" width="0.7" height="18.12" style="fill:#f7b008"/><rect x="16.02" y="0.48" width="0.7" height="18.12" style="fill:#f7b108"/><rect x="16.72" y="0.48" width="0.7" height="18.12" style="fill:#f7b209"/><rect x="17.43" y="0.48" width="0.7" height="18.12" style="fill:#f7b309"/><rect x="18.13" y="0.48" width="0.7" height="18.12" style="fill:#f7b409"/><rect x="18.84" y="0.48" width="0.7" height="18.12" style="fill:#f7b50a"/><rect x="19.54" y="0.48" width="0.7" height="18.12" style="fill:#f7b60a"/><rect x="20.25" y="0.48" width="0.7" height="18.12" style="fill:#f6b70b"/><rect x="20.95" y="0.48" width="0.7" height="18.12" style="fill:#f6b80b"/><rect x="21.66" y="0.48" width="0.7" height="18.12" style="fill:#f6b90b"/><rect x="22.36" y="0.48" width="0.7" height="18.12" style="fill:#f6ba0c"/><rect x="23.07" y="0.48" width="0.7" height="18.12" style="fill:#f6bb0c"/><rect x="23.77" y="0.48" width="0.7" height="18.12" style="fill:#f6bc0d"/><rect x="24.48" y="0.48" width="0.7" height="18.12" style="fill:#f6bd0d"/><rect x="25.18" y="0.48" width="0.7" height="18.12" style="fill:#f6be0d"/><rect x="25.88" y="0.48" width="0.7" height="18.12" style="fill:#f5bf0e"/><rect x="26.59" y="0.48" width="0.7" height="18.12" style="fill:#f5c00e"/><rect x="27.29" y="0.48" width="0.7" height="18.12" style="fill:#f5c10f"/><rect x="28" y="0.48" width="0.7" height="18.12" style="fill:#f5c20f"/><rect x="28.7" y="0.48" width="0.7" height="18.12" style="fill:#f5c410"/><rect x="29.41" y="0.48" width="0.7" height="18.12" style="fill:#f5c510"/><rect x="30.11" y="0.48" width="0.7" height="18.12" style="fill:#f5c610"/><rect x="30.82" y="0.48" width="0.7" height="18.12" style="fill:#f4c711"/><rect x="31.52" y="0.48" width="0.7" height="18.12" style="fill:#f4c811"/><rect x="32.23" y="0.48" width="0.7" height="18.12" style="fill:#f4c912"/><rect x="32.93" y="0.48" width="0.7" height="18.12" style="fill:#f4ca12"/><rect x="33.64" y="0.48" width="0.21" height="18.12" style="fill:#f4ca12"/></g><path d="M17.08,19.07a1.65,1.65,0,0,1-.78-.2L.84,10.41A1.61,1.61,0,0,1,.92,7.54L16.38.16a1.61,1.61,0,0,1,1.39,0L33.23,7.54A1.61,1.61,0,0,1,34.15,9a1.59,1.59,0,0,1-.84,1.46L17.85,18.87A1.64,1.64,0,0,1,17.08,19.07Zm0-18a.75.75,0,0,0-.26.05L1.36,8.47A.56.56,0,0,0,1,9a.57.57,0,0,0,.3.53L16.8,18a.56.56,0,0,0,.56,0L32.82,9.51a.57.57,0,0,0,.3-.53.56.56,0,0,0-.33-.51L17.33,1.08A.74.74,0,0,0,17.08,1Z" style="fill:#fff"/><path d="M28,26a.76.76,0,0,1-.77-.77V12.5L16.91,10.31a.77.77,0,0,1,.33-1.51l10.88,2.32a.78.78,0,0,1,.61.76V25.27A.77.77,0,0,1,28,26Z" style="fill:#1a1f71"/><polygon points="30.85 27.3 25.06 27.3 27.23 22.05 28.69 22.05 30.85 27.3" style="fill:#1a1f71"/></g></g></svg>