<svg xmlns="http://www.w3.org/2000/svg" xmlns:xlink="http://www.w3.org/1999/xlink" viewBox="0 0 26.64 27.3"><defs><clipPath id="clip-path" transform="translate(0 0)"><path d="M4.12,5H2.93A2.88,2.88,0,0,0,0,7.85V24.43A2.91,2.91,0,0,0,3,27.3H23.72a2.88,2.88,0,0,0,2.92-2.84V2.84A2.88,2.88,0,0,0,23.72,0H8.77A2.88,2.88,0,0,0,5.85,2.84V5Z" style="fill:none"/></clipPath></defs><title>icon_news</title><g id="Layer_2" data-name="Layer 2"><g id="Layer_1-2" data-name="Layer 1"><g style="clip-path:url(#clip-path)"><polygon points="0 25.57 1.87 27.3 0 27.3 0 25.57" style="fill:#fa9b00"/><polygon points="0 24.54 2.99 27.3 1.87 27.3 0 25.57 0 24.54" style="fill:#fa9b00"/><polygon points="0 23.5 4.11 27.3 2.99 27.3 0 24.54 0 23.5" style="fill:#fa9c00"/><polygon points="0 22.47 5.22 27.3 4.11 27.3 0 23.5 0 22.47" style="fill:#fa9d01"/><polygon points="0 21.43 6.34 27.3 5.22 27.3 0 22.47 0 21.43" style="fill:#fa9e01"/><polygon points="0 20.4 7.46 27.3 6.34 27.3 0 21.43 0 20.4" style="fill:#fa9f01"/><polygon points="0 19.36 8.58 27.3 7.46 27.3 0 20.4 0 19.36" style="fill:#f9a002"/><polygon points="0 18.32 9.7 27.3 8.58 27.3 0 19.36 0 18.32" style="fill:#f9a002"/><polygon points="0 17.29 10.82 27.3 9.7 27.3 0 18.32 0 17.29" style="fill:#f9a102"/><polygon points="0 16.25 11.94 27.3 10.82 27.3 0 17.29 0 16.25" style="fill:#f9a203"/><polygon points="0 15.22 13.06 27.3 11.94 27.3 0 16.25 0 15.22" style="fill:#f9a303"/><polygon points="0 14.18 14.18 27.3 13.06 27.3 0 15.22 0 14.18" style="fill:#f9a404"/><polygon points="0 13.14 15.3 27.3 14.18 27.3 0 14.18 0 13.14" style="fill:#f9a504"/><polygon points="0 12.11 16.42 27.3 15.3 27.3 0 13.14 0 12.11" style="fill:#f9a604"/><polygon points="0 11.07 17.54 27.3 16.42 27.3 0 12.11 0 11.07" style="fill:#f8a705"/><polygon points="0 10.04 18.66 27.3 17.54 27.3 0 11.07 0 10.04" style="fill:#f8a805"/><polygon points="0 9 19.78 27.3 18.66 27.3 0 10.04 0 9" style="fill:#f8a906"/><polygon points="0 7.97 20.9 27.3 19.78 27.3 0 9 0 7.97" style="fill:#f8aa06"/><polygon points="0 6.93 22.02 27.3 20.9 27.3 0 7.97 0 6.93" style="fill:#f8ab06"/><polygon points="0 5.89 23.14 27.3 22.02 27.3 0 6.93 0 5.89" style="fill:#f8ac07"/><polygon points="0 4.86 24.26 27.3 23.14 27.3 0 5.89 0 4.86" style="fill:#f8ad07"/><polygon points="0 3.82 25.38 27.3 24.26 27.3 0 4.86 0 3.82" style="fill:#f8ae07"/><polygon points="0 3.34 0.27 3.04 26.5 27.3 25.38 27.3 0 3.82 0 3.34" style="fill:#f7b008"/><polygon points="0.27 3.04 0.79 2.48 26.64 26.4 26.64 27.3 26.5 27.3 0.27 3.04" style="fill:#f7b108"/><polygon points="0.79 2.48 1.31 1.92 26.64 25.36 26.64 26.4 0.79 2.48" style="fill:#f7b209"/><polygon points="1.31 1.92 1.82 1.37 26.64 24.33 26.64 25.36 1.31 1.92" style="fill:#f7b309"/><polygon points="1.82 1.37 2.34 0.81 26.64 23.29 26.64 24.33 1.82 1.37" style="fill:#f7b409"/><polygon points="2.34 0.81 2.86 0.25 26.64 22.26 26.64 23.29 2.34 0.81" style="fill:#f7b50a"/><polygon points="2.86 0.25 3.09 0 3.71 0 26.64 21.22 26.64 22.26 2.86 0.25" style="fill:#f7b60a"/><polygon points="4.83 0 26.64 20.18 26.64 21.22 3.71 0 4.83 0" style="fill:#f6b70b"/><polygon points="5.95 0 26.64 19.15 26.64 20.18 4.83 0 5.95 0" style="fill:#f6b80b"/><polygon points="7.06 0 26.64 18.11 26.64 19.15 5.95 0 7.06 0" style="fill:#f6b90b"/><polygon points="8.18 0 26.64 17.08 26.64 18.11 7.06 0 8.18 0" style="fill:#f6ba0c"/><polygon points="9.3 0 26.64 16.04 26.64 17.08 8.18 0 9.3 0" style="fill:#f6bb0c"/><polygon points="10.42 0 26.64 15.01 26.64 16.04 9.3 0 10.42 0" style="fill:#f6bc0d"/><polygon points="11.54 0 26.64 13.97 26.64 15.01 10.42 0 11.54 0" style="fill:#f6bd0d"/><polygon points="12.66 0 26.64 12.93 26.64 13.97 11.54 0 12.66 0" style="fill:#f6be0d"/><polygon points="13.78 0 26.64 11.9 26.64 12.93 12.66 0 13.78 0" style="fill:#f5bf0e"/><polygon points="14.9 0 26.64 10.86 26.64 11.9 13.78 0 14.9 0" style="fill:#f5c00e"/><polygon points="16.02 0 26.64 9.83 26.64 10.86 14.9 0 16.02 0" style="fill:#f5c10f"/><polygon points="17.14 0 26.64 8.79 26.64 9.83 16.02 0 17.14 0" style="fill:#f5c20f"/><polygon points="18.26 0 26.64 7.75 26.64 8.79 17.14 0 18.26 0" style="fill:#f5c410"/><polygon points="19.38 0 26.64 6.72 26.64 7.75 18.26 0 19.38 0" style="fill:#f5c510"/><polygon points="20.5 0 26.64 5.68 26.64 6.72 19.38 0 20.5 0" style="fill:#f5c610"/><polygon points="21.62 0 26.64 4.65 26.64 5.68 20.5 0 21.62 0" style="fill:#f4c711"/><polygon points="22.74 0 26.64 3.61 26.64 4.65 21.62 0 22.74 0" style="fill:#f4c811"/><polygon points="23.86 0 26.64 2.58 26.64 3.61 22.74 0 23.86 0" style="fill:#f4c912"/><polygon points="24.98 0 26.64 1.54 26.64 2.58 23.86 0 24.98 0" style="fill:#f4ca12"/><polygon points="26.64 1.54 24.98 0 26.64 0 26.64 1.54" style="fill:#f4ca12"/></g><path d="M3.26,23.39a.75.75,0,1,1,0-1.5.77.77,0,0,0,.6-.24,3,3,0,0,0,.48-1.88V5h1.5V19.73A4.43,4.43,0,0,1,5,22.68,2.26,2.26,0,0,1,3.26,23.39Z" transform="translate(0 0)" style="fill:#fff"/><rect x="9.54" y="4.29" width="13.42" height="5.71" style="fill:#1a1f71"/><path d="M18.08,15.12H10.17a.75.75,0,0,1,0-1.5h7.91a.75.75,0,0,1,0,1.5Z" transform="translate(0 0)" style="fill:#1a1f71"/><path d="M22.23,19.07H10.17a.75.75,0,0,1,0-1.5H22.23a.75.75,0,0,1,0,1.5Z" transform="translate(0 0)" style="fill:#1a1f71"/><path d="M22.23,23H10.17a.75.75,0,1,1,0-1.5H22.23a.75.75,0,0,1,0,1.5Z" transform="translate(0 0)" style="fill:#1a1f71"/></g></g></svg>