<svg xmlns="http://www.w3.org/2000/svg" xmlns:xlink="http://www.w3.org/1999/xlink" viewBox="0 0 25.55 27.39"><defs><clipPath id="clip-path" transform="translate(0)"><rect y="2.83" width="23.88" height="22.1" rx="2.49" style="fill:none"/></clipPath></defs><title>icon_apply</title><g id="Layer_2" data-name="Layer 2"><g id="Layer_1-2" data-name="Layer 1"><g style="clip-path:url(#clip-path)"><path d="M0,2.83v0Z" transform="translate(0)" style="fill:#fa9b00"/><rect y="2.83" width="0.51" height="22.1" style="fill:#fa9b00"/><rect x="0.51" y="2.83" width="0.51" height="22.1" style="fill:#fa9c00"/><rect x="1.02" y="2.83" width="0.51" height="22.1" style="fill:#fa9d01"/><rect x="1.52" y="2.83" width="0.51" height="22.1" style="fill:#fa9e01"/><rect x="2.03" y="2.83" width="0.51" height="22.1" style="fill:#fa9e01"/><rect x="2.54" y="2.83" width="0.51" height="22.1" style="fill:#f99f02"/><rect x="3.05" y="2.83" width="0.51" height="22.1" style="fill:#f9a002"/><rect x="3.56" y="2.83" width="0.51" height="22.1" style="fill:#f9a102"/><rect x="4.07" y="2.83" width="0.51" height="22.1" style="fill:#f9a203"/><rect x="4.57" y="2.83" width="0.51" height="22.1" style="fill:#f9a303"/><rect x="5.08" y="2.83" width="0.51" height="22.1" style="fill:#f9a404"/><rect x="5.59" y="2.83" width="0.51" height="22.1" style="fill:#f9a504"/><rect x="6.1" y="2.83" width="0.51" height="22.1" style="fill:#f9a604"/><rect x="6.61" y="2.83" width="0.51" height="22.1" style="fill:#f8a705"/><rect x="7.11" y="2.83" width="0.51" height="22.1" style="fill:#f8a805"/><rect x="7.62" y="2.83" width="0.51" height="22.1" style="fill:#f8a905"/><rect x="8.13" y="2.83" width="0.51" height="22.1" style="fill:#f8aa06"/><rect x="8.64" y="2.83" width="0.51" height="22.1" style="fill:#f8ab06"/><rect x="9.15" y="2.83" width="0.51" height="22.1" style="fill:#f8ac07"/><rect x="9.66" y="2.83" width="0.51" height="22.1" style="fill:#f8ad07"/><rect x="10.16" y="2.83" width="0.51" height="22.1" style="fill:#f8ae07"/><rect x="10.67" y="2.83" width="0.51" height="22.1" style="fill:#f7af08"/><rect x="11.18" y="2.83" width="0.51" height="22.1" style="fill:#f7b008"/><rect x="11.69" y="2.83" width="0.51" height="22.1" style="fill:#f7b109"/><rect x="12.2" y="2.83" width="0.51" height="22.1" style="fill:#f7b309"/><rect x="12.7" y="2.83" width="0.51" height="22.1" style="fill:#f7b409"/><rect x="13.21" y="2.83" width="0.51" height="22.1" style="fill:#f7b50a"/><rect x="13.72" y="2.83" width="0.51" height="22.1" style="fill:#f7b60a"/><rect x="14.23" y="2.83" width="0.51" height="22.1" style="fill:#f6b70b"/><rect x="14.74" y="2.83" width="0.51" height="22.1" style="fill:#f6b80b"/><rect x="15.25" y="2.83" width="0.51" height="22.1" style="fill:#f6b90b"/><rect x="15.75" y="2.83" width="0.51" height="22.1" style="fill:#f6ba0c"/><rect x="16.26" y="2.83" width="0.51" height="22.1" style="fill:#f6bb0c"/><rect x="16.77" y="2.83" width="0.51" height="22.1" style="fill:#f6bc0d"/><rect x="17.28" y="2.83" width="0.51" height="22.1" style="fill:#f6bd0d"/><rect x="17.79" y="2.83" width="0.51" height="22.1" style="fill:#f6be0d"/><rect x="18.29" y="2.83" width="0.51" height="22.1" style="fill:#f5bf0e"/><rect x="18.8" y="2.83" width="0.51" height="22.1" style="fill:#f5c00e"/><rect x="19.31" y="2.83" width="0.51" height="22.1" style="fill:#f5c10f"/><rect x="19.82" y="2.83" width="0.51" height="22.1" style="fill:#f5c20f"/><rect x="20.33" y="2.83" width="0.51" height="22.1" style="fill:#f5c410"/><rect x="20.84" y="2.83" width="0.51" height="22.1" style="fill:#f5c510"/><rect x="21.34" y="2.83" width="0.51" height="22.1" style="fill:#f5c610"/><rect x="21.85" y="2.83" width="0.51" height="22.1" style="fill:#f4c711"/><rect x="22.36" y="2.83" width="0.51" height="22.1" style="fill:#f4c811"/><rect x="22.87" y="2.83" width="0.51" height="22.1" style="fill:#f4c912"/><rect x="23.38" y="2.83" width="0.51" height="22.1" style="fill:#f4ca12"/><path d="M23.88,24.94v0Z" transform="translate(0)" style="fill:#f4ca12"/></g><rect y="7.38" width="23.88" height="1.4" style="fill:#fff"/><rect x="5.51" width="1.87" height="5.13" style="fill:#1a1f71"/><rect x="16.51" width="1.87" height="5.13" style="fill:#1a1f71"/><path d="M25.55,22A5.58,5.58,0,1,1,20,16.52,5.51,5.51,0,0,1,25.55,22Z" transform="translate(0)" style="fill:#1a1f71"/><path d="M19.19,24.78l-2.35-2.39a.71.71,0,0,1,0-1,.7.7,0,0,1,1,0l1.31,1.32L22,19.58a.7.7,0,1,1,1,.94Z" transform="translate(0)" style="fill:#fff"/><rect x="4.57" y="11.45" width="4.92" height="3.28" style="fill:#1a1f71"/><rect x="4.57" y="17.99" width="4.92" height="3.28" style="fill:#1a1f71"/><rect x="14.39" y="11.45" width="4.92" height="3.28" style="fill:#1a1f71"/></g></g></svg>