<svg xmlns="http://www.w3.org/2000/svg" xmlns:xlink="http://www.w3.org/1999/xlink" viewBox="0 0 25.91 27.28"><defs><clipPath id="clip-path" transform="translate(0)"><path d="M23.83,14.35H18.36V10.46L13,7.54l-5.4,2.92v3.89H2.08A2.08,2.08,0,0,0,0,16.43V25.2a2.08,2.08,0,0,0,2.08,2.08h7V22.76A3.84,3.84,0,0,1,13,18.92h0a3.84,3.84,0,0,1,3.84,3.84v4.52h7a2.08,2.08,0,0,0,2.08-2.08V16.43A2.08,2.08,0,0,0,23.83,14.35Z" style="fill:none"/></clipPath></defs><title>icon_sch_rank</title><g id="Layer_2" data-name="Layer 2"><g id="Layer_1-2" data-name="Layer 1"><path d="M13,9.61a.73.73,0,0,1-.73-.73V.73a.73.73,0,0,1,1.46,0V8.88A.73.73,0,0,1,13,9.61Z" transform="translate(0)" style="fill:#1a1f71"/><g style="clip-path:url(#clip-path)"><path d="M0,7.54v0Z" transform="translate(0)" style="fill:#fa9b00"/><rect y="7.54" width="0.55" height="19.74" style="fill:#fa9b00"/><rect x="0.55" y="7.54" width="0.55" height="19.74" style="fill:#fa9c00"/><rect x="1.1" y="7.54" width="0.55" height="19.74" style="fill:#fa9d01"/><rect x="1.65" y="7.54" width="0.55" height="19.74" style="fill:#fa9e01"/><rect x="2.2" y="7.54" width="0.55" height="19.74" style="fill:#fa9e01"/><rect x="2.76" y="7.54" width="0.55" height="19.74" style="fill:#f99f02"/><rect x="3.31" y="7.54" width="0.55" height="19.74" style="fill:#f9a002"/><rect x="3.86" y="7.54" width="0.55" height="19.74" style="fill:#f9a102"/><rect x="4.41" y="7.54" width="0.55" height="19.74" style="fill:#f9a203"/><rect x="4.96" y="7.54" width="0.55" height="19.74" style="fill:#f9a303"/><rect x="5.51" y="7.54" width="0.55" height="19.74" style="fill:#f9a404"/><rect x="6.06" y="7.54" width="0.55" height="19.74" style="fill:#f9a504"/><rect x="6.61" y="7.54" width="0.55" height="19.74" style="fill:#f9a604"/><rect x="7.17" y="7.54" width="0.55" height="19.74" style="fill:#f8a705"/><rect x="7.72" y="7.54" width="0.55" height="19.74" style="fill:#f8a805"/><rect x="8.27" y="7.54" width="0.55" height="19.74" style="fill:#f8a905"/><rect x="8.82" y="7.54" width="0.55" height="19.74" style="fill:#f8aa06"/><rect x="9.37" y="7.54" width="0.55" height="19.74" style="fill:#f8ab06"/><rect x="9.92" y="7.54" width="0.55" height="19.74" style="fill:#f8ac07"/><rect x="10.47" y="7.54" width="0.55" height="19.74" style="fill:#f8ad07"/><rect x="11.02" y="7.54" width="0.55" height="19.74" style="fill:#f8ae07"/><rect x="11.58" y="7.54" width="0.55" height="19.74" style="fill:#f7af08"/><rect x="12.13" y="7.54" width="0.55" height="19.74" style="fill:#f7b008"/><rect x="12.68" y="7.54" width="0.55" height="19.74" style="fill:#f7b109"/><rect x="13.23" y="7.54" width="0.55" height="19.74" style="fill:#f7b309"/><rect x="13.78" y="7.54" width="0.55" height="19.74" style="fill:#f7b409"/><rect x="14.33" y="7.54" width="0.55" height="19.74" style="fill:#f7b50a"/><rect x="14.88" y="7.54" width="0.55" height="19.74" style="fill:#f7b60a"/><rect x="15.43" y="7.54" width="0.55" height="19.74" style="fill:#f6b70b"/><rect x="15.99" y="7.54" width="0.55" height="19.74" style="fill:#f6b80b"/><rect x="16.54" y="7.54" width="0.55" height="19.74" style="fill:#f6b90b"/><rect x="17.09" y="7.54" width="0.55" height="19.74" style="fill:#f6ba0c"/><rect x="17.64" y="7.54" width="0.55" height="19.74" style="fill:#f6bb0c"/><rect x="18.19" y="7.54" width="0.55" height="19.74" style="fill:#f6bc0d"/><rect x="18.74" y="7.54" width="0.55" height="19.74" style="fill:#f6bd0d"/><rect x="19.29" y="7.54" width="0.55" height="19.74" style="fill:#f6be0d"/><rect x="19.84" y="7.54" width="0.55" height="19.74" style="fill:#f5bf0e"/><rect x="20.4" y="7.54" width="0.55" height="19.74" style="fill:#f5c00e"/><rect x="20.95" y="7.54" width="0.55" height="19.74" style="fill:#f5c10f"/><rect x="21.5" y="7.54" width="0.55" height="19.74" style="fill:#f5c20f"/><rect x="22.05" y="7.54" width="0.55" height="19.74" style="fill:#f5c410"/><rect x="22.6" y="7.54" width="0.55" height="19.74" style="fill:#f5c510"/><rect x="23.15" y="7.54" width="0.55" height="19.74" style="fill:#f5c610"/><rect x="23.7" y="7.54" width="0.55" height="19.74" style="fill:#f4c711"/><rect x="24.25" y="7.54" width="0.55" height="19.74" style="fill:#f4c811"/><rect x="24.81" y="7.54" width="0.55" height="19.74" style="fill:#f4c912"/><rect x="25.36" y="7.54" width="0.55" height="19.74" style="fill:#f4ca12"/><path d="M25.91,27.28v0Z" transform="translate(0)" style="fill:#f4ca12"/></g><path d="M14.9,13a1.95,1.95,0,1,1-2-2A1.94,1.94,0,0,1,14.9,13Z" transform="translate(0)" style="fill:#1a1f71"/><rect x="13.02" y="1.25" width="5.47" height="3.39" style="fill:#1a1f71"/><rect x="2.92" y="17.97" width="3.89" height="3.89" style="fill:#1a1f71"/><rect x="19.1" y="17.89" width="3.89" height="3.89" style="fill:#1a1f71"/></g></g></svg>