<svg xmlns="http://www.w3.org/2000/svg" xmlns:xlink="http://www.w3.org/1999/xlink" viewBox="0 0 27.77 27.3"><defs><clipPath id="clip-path"><path d="M24.81,24.71H3A2.29,2.29,0,0,1,.74,22.35V11.12A4.5,4.5,0,0,1,5.09,6.49H22.68A4.5,4.5,0,0,1,27,11.12V22.35A2.29,2.29,0,0,1,24.81,24.71Z" style="fill:none"/></clipPath></defs><title>icon_luggage</title><g id="Layer_2" data-name="Layer 2"><g id="Layer_1-2" data-name="Layer 1"><path d="M10.26,8a.74.74,0,0,1-.74-.74v-6a.74.74,0,0,1,1.48,0v6A.74.74,0,0,1,10.26,8Z" style="fill:#1a1f71"/><path d="M17.55,8a.74.74,0,0,1-.74-.74v-6a.74.74,0,0,1,1.48,0v6A.74.74,0,0,1,17.55,8Z" style="fill:#1a1f71"/><g style="clip-path:url(#clip-path)"><path d="M.74,6.49v0Z" style="fill:#fa9b00"/><rect x="0.74" y="6.49" width="0.56" height="18.21" style="fill:#fa9b00"/><rect x="1.3" y="6.49" width="0.56" height="18.21" style="fill:#fa9c00"/><rect x="1.86" y="6.49" width="0.56" height="18.21" style="fill:#fa9d01"/><rect x="2.42" y="6.49" width="0.56" height="18.21" style="fill:#fa9e01"/><rect x="2.98" y="6.49" width="0.56" height="18.21" style="fill:#fa9e01"/><rect x="3.54" y="6.49" width="0.56" height="18.21" style="fill:#f99f02"/><rect x="4.1" y="6.49" width="0.56" height="18.21" style="fill:#f9a002"/><rect x="4.66" y="6.49" width="0.56" height="18.21" style="fill:#f9a102"/><rect x="5.22" y="6.49" width="0.56" height="18.21" style="fill:#f9a203"/><rect x="5.77" y="6.49" width="0.56" height="18.21" style="fill:#f9a303"/><rect x="6.33" y="6.49" width="0.56" height="18.21" style="fill:#f9a404"/><rect x="6.89" y="6.49" width="0.56" height="18.21" style="fill:#f9a504"/><rect x="7.45" y="6.49" width="0.56" height="18.21" style="fill:#f9a604"/><rect x="8.01" y="6.49" width="0.56" height="18.21" style="fill:#f8a705"/><rect x="8.57" y="6.49" width="0.56" height="18.21" style="fill:#f8a805"/><rect x="9.13" y="6.49" width="0.56" height="18.21" style="fill:#f8a905"/><rect x="9.69" y="6.49" width="0.56" height="18.21" style="fill:#f8aa06"/><rect x="10.25" y="6.49" width="0.56" height="18.21" style="fill:#f8ab06"/><rect x="10.81" y="6.49" width="0.56" height="18.21" style="fill:#f8ac07"/><rect x="11.37" y="6.49" width="0.56" height="18.21" style="fill:#f8ad07"/><rect x="11.93" y="6.49" width="0.56" height="18.21" style="fill:#f8ae07"/><rect x="12.49" y="6.49" width="0.56" height="18.21" style="fill:#f7af08"/><rect x="13.05" y="6.49" width="0.56" height="18.21" style="fill:#f7b008"/><rect x="13.61" y="6.49" width="0.56" height="18.21" style="fill:#f7b109"/><rect x="14.16" y="6.49" width="0.56" height="18.21" style="fill:#f7b309"/><rect x="14.72" y="6.49" width="0.56" height="18.21" style="fill:#f7b409"/><rect x="15.28" y="6.49" width="0.56" height="18.21" style="fill:#f7b50a"/><rect x="15.84" y="6.49" width="0.56" height="18.21" style="fill:#f7b60a"/><rect x="16.4" y="6.49" width="0.56" height="18.21" style="fill:#f6b70b"/><rect x="16.96" y="6.49" width="0.56" height="18.21" style="fill:#f6b80b"/><rect x="17.52" y="6.49" width="0.56" height="18.21" style="fill:#f6b90b"/><rect x="18.08" y="6.49" width="0.56" height="18.21" style="fill:#f6ba0c"/><rect x="18.64" y="6.49" width="0.56" height="18.21" style="fill:#f6bb0c"/><rect x="19.2" y="6.49" width="0.56" height="18.21" style="fill:#f6bc0d"/><rect x="19.76" y="6.49" width="0.56" height="18.21" style="fill:#f6bd0d"/><rect x="20.32" y="6.49" width="0.56" height="18.21" style="fill:#f6be0d"/><rect x="20.88" y="6.49" width="0.56" height="18.21" style="fill:#f5bf0e"/><rect x="21.44" y="6.49" width="0.56" height="18.21" style="fill:#f5c00e"/><rect x="22" y="6.49" width="0.56" height="18.21" style="fill:#f5c10f"/><rect x="22.55" y="6.49" width="0.56" height="18.21" style="fill:#f5c20f"/><rect x="23.11" y="6.49" width="0.56" height="18.21" style="fill:#f5c410"/><rect x="23.67" y="6.49" width="0.56" height="18.21" style="fill:#f5c510"/><rect x="24.23" y="6.49" width="0.56" height="18.21" style="fill:#f5c610"/><rect x="24.79" y="6.49" width="0.56" height="18.21" style="fill:#f4c711"/><rect x="25.35" y="6.49" width="0.56" height="18.21" style="fill:#f4c811"/><rect x="25.91" y="6.49" width="0.56" height="18.21" style="fill:#f4c912"/><rect x="26.47" y="6.49" width="0.56" height="18.21" style="fill:#f4ca12"/><path d="M27,24.71v0Z" style="fill:#f4ca12"/></g><rect x="6.48" y="6.49" width="0.99" height="18.22" style="fill:#1a1f71"/><rect x="20.3" y="6.49" width="0.99" height="18.22" style="fill:#1a1f71"/><path d="M19.15,1.48H8.65A.74.74,0,0,1,8.65,0h10.5a.74.74,0,0,1,0,1.48Z" style="fill:#1a1f71"/><path d="M17.28,12.25H10.49a.74.74,0,0,1,0-1.48h6.79a.74.74,0,1,1,0,1.48Z" style="fill:#1a1f71"/><rect width="27.77" height="27.3" style="fill:none"/><path d="M8,24.73A2.1,2.1,0,1,1,6,22.63,2.09,2.09,0,0,1,8,24.73" style="fill:#1a1f71"/><path d="M6,27.13a2.41,2.41,0,1,1,2.41-2.4A2.41,2.41,0,0,1,6,27.13Zm0-4.19a1.79,1.79,0,1,0,1.78,1.79A1.79,1.79,0,0,0,6,22.94Z" style="fill:#fff"/><path d="M23.92,24.73a2.1,2.1,0,1,1-2.1-2.1,2.1,2.1,0,0,1,2.1,2.1" style="fill:#1a1f71"/><path d="M21.82,27.13a2.41,2.41,0,1,1,2.41-2.4A2.41,2.41,0,0,1,21.82,27.13Zm0-4.19a1.79,1.79,0,1,0,1.79,1.79A1.79,1.79,0,0,0,21.82,22.94Z" style="fill:#fff"/></g></g></svg>