<svg xmlns="http://www.w3.org/2000/svg" xmlns:xlink="http://www.w3.org/1999/xlink" viewBox="0 0 27.46 27.3"><defs><clipPath id="clip-path"><polygon points="15.75 12.15 10.86 12.15 6.21 12.15 6.21 23.66 10.86 23.66 10.86 27.3 21.3 27.3 21.3 12.15 15.75 12.15" style="fill:none"/></clipPath></defs><title>Asset 13</title><g id="Layer_2" data-name="Layer 2"><g id="Layer_1-2" data-name="Layer 1"><path d="M13.73,6.78A.73.73,0,0,1,13,6.05V4.1h.73a1.32,1.32,0,1,0-1.32-1.32.73.73,0,1,1-1.46,0,2.78,2.78,0,1,1,3.51,2.68v.59A.73.73,0,0,1,13.73,6.78Z" style="fill:#1a1f71"/><path d="M26.3,14.92H1.16a1.17,1.17,0,0,1-.55-2.19L13.18,5.9a1.15,1.15,0,0,1,1.11,0l12.56,6.84a1.14,1.14,0,0,1,.58,1.3A1.15,1.15,0,0,1,26.3,14.92Zm-24-1.46H25.12L13.73,7.26ZM13.53,6.54h0Z" style="fill:#1a1f71"/><g style="clip-path:url(#clip-path)"><polygon points="6.21 23.66 10.16 27.3 6.21 27.3 6.21 23.66" style="fill:#fa9b00"/><polygon points="6.21 23.11 10.74 27.3 10.16 27.3 6.21 23.66 6.21 23.11" style="fill:#fa9b00"/><polygon points="6.21 22.57 11.33 27.3 10.74 27.3 6.21 23.11 6.21 22.57" style="fill:#fa9c00"/><polygon points="6.21 22.03 11.91 27.3 11.33 27.3 6.21 22.57 6.21 22.03" style="fill:#fa9d01"/><polygon points="6.21 21.49 12.5 27.3 11.91 27.3 6.21 22.03 6.21 21.49" style="fill:#fa9e01"/><polygon points="6.21 20.95 13.08 27.3 12.5 27.3 6.21 21.49 6.21 20.95" style="fill:#fa9f01"/><polygon points="6.21 20.4 13.67 27.3 13.08 27.3 6.21 20.95 6.21 20.4" style="fill:#f9a002"/><polygon points="6.21 19.86 14.26 27.3 13.67 27.3 6.21 20.4 6.21 19.86" style="fill:#f9a002"/><polygon points="6.21 19.32 14.84 27.3 14.26 27.3 6.21 19.86 6.21 19.32" style="fill:#f9a102"/><polygon points="6.21 18.78 15.43 27.3 14.84 27.3 6.21 19.32 6.21 18.78" style="fill:#f9a203"/><polygon points="6.21 18.24 16.01 27.3 15.43 27.3 6.21 18.78 6.21 18.24" style="fill:#f9a303"/><polygon points="6.21 17.7 16.6 27.3 16.01 27.3 6.21 18.24 6.21 17.7" style="fill:#f9a404"/><polygon points="6.21 17.15 17.18 27.3 16.6 27.3 6.21 17.7 6.21 17.15" style="fill:#f9a504"/><polygon points="6.21 16.61 17.77 27.3 17.18 27.3 6.21 17.15 6.21 16.61" style="fill:#f9a604"/><polygon points="6.21 16.07 18.36 27.3 17.77 27.3 6.21 16.61 6.21 16.07" style="fill:#f8a705"/><polygon points="6.21 15.53 18.94 27.3 18.36 27.3 6.21 16.07 6.21 15.53" style="fill:#f8a805"/><polygon points="6.21 14.99 19.53 27.3 18.94 27.3 6.21 15.53 6.21 14.99" style="fill:#f8a906"/><polygon points="6.21 14.44 20.11 27.3 19.53 27.3 6.21 14.99 6.21 14.44" style="fill:#f8aa06"/><polygon points="6.21 13.9 20.7 27.3 20.11 27.3 6.21 14.44 6.21 13.9" style="fill:#f8ab06"/><polygon points="6.21 13.36 21.28 27.3 20.7 27.3 6.21 13.9 6.21 13.36" style="fill:#f8ac07"/><polygon points="6.21 12.82 21.3 26.78 21.3 27.3 21.28 27.3 6.21 13.36 6.21 12.82" style="fill:#f8ad07"/><polygon points="6.21 12.28 21.3 26.24 21.3 26.78 6.21 12.82 6.21 12.28" style="fill:#f8ae07"/><polygon points="6.66 12.15 21.3 25.69 21.3 26.24 6.21 12.28 6.21 12.15 6.66 12.15" style="fill:#f7b008"/><polygon points="7.25 12.15 21.3 25.15 21.3 25.69 6.66 12.15 7.25 12.15" style="fill:#f7b108"/><polygon points="7.83 12.15 21.3 24.61 21.3 25.15 7.25 12.15 7.83 12.15" style="fill:#f7b209"/><polygon points="8.42 12.15 21.3 24.07 21.3 24.61 7.83 12.15 8.42 12.15" style="fill:#f7b309"/><polygon points="9 12.15 21.3 23.53 21.3 24.07 8.42 12.15 9 12.15" style="fill:#f7b409"/><polygon points="9.59 12.15 21.3 22.98 21.3 23.53 9 12.15 9.59 12.15" style="fill:#f7b50a"/><polygon points="10.18 12.15 21.3 22.44 21.3 22.98 9.59 12.15 10.18 12.15" style="fill:#f7b60a"/><polygon points="10.76 12.15 21.3 21.9 21.3 22.44 10.18 12.15 10.76 12.15" style="fill:#f6b70b"/><polygon points="11.35 12.15 21.3 21.36 21.3 21.9 10.76 12.15 11.35 12.15" style="fill:#f6b80b"/><polygon points="11.93 12.15 21.3 20.82 21.3 21.36 11.35 12.15 11.93 12.15" style="fill:#f6b90b"/><polygon points="12.52 12.15 21.3 20.28 21.3 20.82 11.93 12.15 12.52 12.15" style="fill:#f6ba0c"/><polygon points="13.1 12.15 21.3 19.73 21.3 20.28 12.52 12.15 13.1 12.15" style="fill:#f6bb0c"/><polygon points="13.69 12.15 21.3 19.19 21.3 19.73 13.1 12.15 13.69 12.15" style="fill:#f6bc0d"/><polygon points="14.27 12.15 21.3 18.65 21.3 19.19 13.69 12.15 14.27 12.15" style="fill:#f6bd0d"/><polygon points="14.86 12.15 21.3 18.11 21.3 18.65 14.27 12.15 14.86 12.15" style="fill:#f6be0d"/><polygon points="15.45 12.15 21.3 17.57 21.3 18.11 14.86 12.15 15.45 12.15" style="fill:#f5bf0e"/><polygon points="16.03 12.15 21.3 17.02 21.3 17.57 15.45 12.15 16.03 12.15" style="fill:#f5c00e"/><polygon points="16.62 12.15 21.3 16.48 21.3 17.02 16.03 12.15 16.62 12.15" style="fill:#f5c10f"/><polygon points="17.2 12.15 21.3 15.94 21.3 16.48 16.62 12.15 17.2 12.15" style="fill:#f5c20f"/><polygon points="17.79 12.15 21.3 15.4 21.3 15.94 17.2 12.15 17.79 12.15" style="fill:#f5c410"/><polygon points="18.37 12.15 21.3 14.86 21.3 15.4 17.79 12.15 18.37 12.15" style="fill:#f5c510"/><polygon points="18.96 12.15 21.3 14.32 21.3 14.86 18.37 12.15 18.96 12.15" style="fill:#f5c610"/><polygon points="19.55 12.15 21.3 13.77 21.3 14.32 18.96 12.15 19.55 12.15" style="fill:#f4c711"/><polygon points="20.13 12.15 21.3 13.23 21.3 13.77 19.55 12.15 20.13 12.15" style="fill:#f4c811"/><polygon points="20.72 12.15 21.3 12.69 21.3 13.23 20.13 12.15 20.72 12.15" style="fill:#f4c912"/><polygon points="21.3 12.15 21.3 12.15 21.3 12.69 20.72 12.15 21.3 12.15" style="fill:#f4ca12"/></g><line x1="11.33" y1="27.03" x2="11.33" y2="12.42" style="fill:#fff"/><rect x="10.6" y="12.15" width="1.46" height="15.15" style="fill:#fff"/></g></g></svg>