<svg xmlns="http://www.w3.org/2000/svg" xmlns:xlink="http://www.w3.org/1999/xlink" viewBox="0 0 27.26 27.3"><defs><clipPath id="clip-path"><path d="M16.6,17.5A2,2,0,0,1,18.73,20,10.45,10.45,0,1,0,6,17.5Z" style="fill:none"/></clipPath><clipPath id="clip-path-2"><rect width="27.26" height="27.3" style="fill:none"/></clipPath></defs><title>icon_fee</title><g id="Layer_2" data-name="Layer 2"><g id="Layer_1-2" data-name="Layer 1"><g style="clip-path:url(#clip-path)"><path d="M3.44.24v0Z" style="fill:#fa9b00"/><rect x="3.44" y="0.24" width="0.44" height="19.71" style="fill:#fa9b00"/><rect x="3.88" y="0.24" width="0.44" height="19.71" style="fill:#fa9c00"/><rect x="4.33" y="0.24" width="0.44" height="19.71" style="fill:#fa9d01"/><rect x="4.77" y="0.24" width="0.44" height="19.71" style="fill:#fa9e01"/><rect x="5.21" y="0.24" width="0.44" height="19.71" style="fill:#fa9e01"/><rect x="5.66" y="0.24" width="0.44" height="19.71" style="fill:#f99f02"/><rect x="6.1" y="0.24" width="0.44" height="19.71" style="fill:#f9a002"/><rect x="6.55" y="0.24" width="0.44" height="19.71" style="fill:#f9a102"/><rect x="6.99" y="0.24" width="0.44" height="19.71" style="fill:#f9a203"/><rect x="7.44" y="0.24" width="0.44" height="19.71" style="fill:#f9a303"/><rect x="7.88" y="0.24" width="0.44" height="19.71" style="fill:#f9a404"/><rect x="8.33" y="0.24" width="0.44" height="19.71" style="fill:#f9a504"/><rect x="8.77" y="0.24" width="0.44" height="19.71" style="fill:#f9a604"/><rect x="9.22" y="0.24" width="0.44" height="19.71" style="fill:#f8a705"/><rect x="9.66" y="0.24" width="0.44" height="19.71" style="fill:#f8a805"/><rect x="10.11" y="0.24" width="0.44" height="19.71" style="fill:#f8a905"/><rect x="10.55" y="0.24" width="0.44" height="19.71" style="fill:#f8aa06"/><rect x="11" y="0.24" width="0.44" height="19.71" style="fill:#f8ab06"/><rect x="11.44" y="0.24" width="0.44" height="19.71" style="fill:#f8ac07"/><rect x="11.89" y="0.24" width="0.44" height="19.71" style="fill:#f8ad07"/><rect x="12.33" y="0.24" width="0.44" height="19.71" style="fill:#f8ae07"/><rect x="12.78" y="0.24" width="0.44" height="19.71" style="fill:#f7af08"/><rect x="13.22" y="0.24" width="0.44" height="19.71" style="fill:#f7b008"/><rect x="13.67" y="0.24" width="0.44" height="19.71" style="fill:#f7b109"/><rect x="14.11" y="0.24" width="0.44" height="19.71" style="fill:#f7b309"/><rect x="14.56" y="0.24" width="0.44" height="19.71" style="fill:#f7b409"/><rect x="15" y="0.24" width="0.44" height="19.71" style="fill:#f7b50a"/><rect x="15.44" y="0.24" width="0.44" height="19.71" style="fill:#f7b60a"/><rect x="15.89" y="0.24" width="0.44" height="19.71" style="fill:#f6b70b"/><rect x="16.33" y="0.24" width="0.44" height="19.71" style="fill:#f6b80b"/><rect x="16.78" y="0.24" width="0.44" height="19.71" style="fill:#f6b90b"/><rect x="17.22" y="0.24" width="0.44" height="19.71" style="fill:#f6ba0c"/><rect x="17.67" y="0.24" width="0.44" height="19.71" style="fill:#f6bb0c"/><rect x="18.11" y="0.24" width="0.44" height="19.71" style="fill:#f6bc0d"/><rect x="18.56" y="0.24" width="0.44" height="19.71" style="fill:#f6bd0d"/><rect x="19" y="0.24" width="0.44" height="19.71" style="fill:#f6be0d"/><rect x="19.45" y="0.24" width="0.44" height="19.71" style="fill:#f5bf0e"/><rect x="19.89" y="0.24" width="0.44" height="19.71" style="fill:#f5c00e"/><rect x="20.34" y="0.24" width="0.44" height="19.71" style="fill:#f5c10f"/><rect x="20.78" y="0.24" width="0.44" height="19.71" style="fill:#f5c20f"/><rect x="21.23" y="0.24" width="0.44" height="19.71" style="fill:#f5c410"/><rect x="21.67" y="0.24" width="0.44" height="19.71" style="fill:#f5c510"/><rect x="22.12" y="0.24" width="0.44" height="19.71" style="fill:#f5c610"/><rect x="22.56" y="0.24" width="0.44" height="19.71" style="fill:#f4c711"/><rect x="23.01" y="0.24" width="0.44" height="19.71" style="fill:#f4c811"/><rect x="23.45" y="0.24" width="0.44" height="19.71" style="fill:#f4c912"/><rect x="23.9" y="0.24" width="0.44" height="19.71" style="fill:#f4ca12"/><path d="M24.34,20v0Z" style="fill:#f4ca12"/></g><g style="clip-path:url(#clip-path-2)"><path d="M12.94,27.3a1.88,1.88,0,0,1-.53-.07L0,23.75V16.84H16.28A2.89,2.89,0,0,1,19,18.54a2.59,2.59,0,0,1,.16,1.31l4.66-1.27A2.67,2.67,0,0,1,27,20a2.55,2.55,0,0,1,0,2.06,2.83,2.83,0,0,1-1.81,1.48c-.58.2-3.07,1-11.62,3.62l-.12,0A2.24,2.24,0,0,1,12.94,27.3ZM1.46,22.64,12.8,25.83a.53.53,0,0,0,.28,0l.12,0c8.54-2.64,11-3.42,11.59-3.61a1.5,1.5,0,0,0,.94-.7,1.11,1.11,0,0,0,0-.9,1.25,1.25,0,0,0-1.5-.6l-9.06,2.47-.12,0-4-.33.12-1.45,3.79.31,2.58-.7-.07-.07a1,1,0,0,0,.26-1.14,1.42,1.42,0,0,0-1.36-.81H1.46Z" style="fill:#1a1f71"/></g><path d="M13.89,9.91l2.27-4.09h1.72L15.06,10.5h1.61v.93h-2v1h2v.94h-2v1.5h-1.6v-1.5h-2v-.94h2v-1h-2V10.5h1.59L9.88,5.82h1.74Z" style="fill:#1a1f71"/><rect width="27.26" height="27.3" style="fill:none"/></g></g></svg>