<svg xmlns="http://www.w3.org/2000/svg" xmlns:xlink="http://www.w3.org/1999/xlink" viewBox="0 0 27.3 27.3"><defs><linearGradient id="linear-gradient" x1="4.97" y1="30.48" x2="29.75" y2="3.7" gradientUnits="userSpaceOnUse"><stop offset="0" stop-color="#fa9b00"/><stop offset="1" stop-color="#f4ca12"/></linearGradient></defs><title>icon_show_all</title><g id="Layer_2" data-name="Layer 2"><g id="Layer_1-2" data-name="Layer 1"><path d="M9.87,2.48a.06.06,0,0,1,.06.06V9.87a.06.06,0,0,1-.06.06H2.54a.06.06,0,0,1-.06-.06V2.54a.06.06,0,0,1,.06-.06H9.87M9.87,0H2.54A2.54,2.54,0,0,0,0,2.54V9.87a2.54,2.54,0,0,0,2.54,2.54H9.87a2.54,2.54,0,0,0,2.54-2.54V2.54A2.54,2.54,0,0,0,9.87,0Z" style="fill:#1a1f71"/><path d="M24.76,12.41H17.43a2.54,2.54,0,0,1-2.54-2.54V2.54A2.54,2.54,0,0,1,17.43,0h7.33A2.54,2.54,0,0,1,27.3,2.54V9.87A2.54,2.54,0,0,1,24.76,12.41ZM12.41,24.76V17.43a2.54,2.54,0,0,0-2.54-2.54H2.54A2.54,2.54,0,0,0,0,17.43v7.33A2.54,2.54,0,0,0,2.54,27.3H9.87A2.54,2.54,0,0,0,12.41,24.76Zm14.89,0V17.43a2.54,2.54,0,0,0-2.54-2.54H17.43a2.54,2.54,0,0,0-2.54,2.54v7.33a2.54,2.54,0,0,0,2.54,2.54h7.33A2.53,2.53,0,0,0,27.3,24.76Z" style="fill:url(#linear-gradient)"/></g></g></svg>