<svg xmlns="http://www.w3.org/2000/svg" xmlns:xlink="http://www.w3.org/1999/xlink" viewBox="0 0 26.64 27.3"><defs><clipPath id="clip-path" transform="translate(0)"><rect width="26.64" height="27.3" rx="2.52" style="fill:none"/></clipPath></defs><title>icon_preparation</title><g id="Layer_2" data-name="Layer 2"><g id="Layer_1-2" data-name="Layer 1"><g style="clip-path:url(#clip-path)"><path d="M0,0V0Z" transform="translate(0)" style="fill:#fa9b00"/><rect width="0.57" height="27.3" style="fill:#fa9b00"/><rect x="0.57" width="0.57" height="27.3" style="fill:#fa9c00"/><rect x="1.13" width="0.57" height="27.3" style="fill:#fa9d01"/><rect x="1.7" width="0.57" height="27.3" style="fill:#fa9e01"/><rect x="2.27" width="0.57" height="27.3" style="fill:#fa9f01"/><rect x="2.83" width="0.57" height="27.3" style="fill:#f9a002"/><rect x="3.4" width="0.57" height="27.3" style="fill:#f9a002"/><rect x="3.97" width="0.57" height="27.3" style="fill:#f9a102"/><rect x="4.53" width="0.57" height="27.3" style="fill:#f9a203"/><rect x="5.1" width="0.57" height="27.3" style="fill:#f9a303"/><rect x="5.67" width="0.57" height="27.3" style="fill:#f9a404"/><rect x="6.24" width="0.57" height="27.3" style="fill:#f9a504"/><rect x="6.8" width="0.57" height="27.3" style="fill:#f9a604"/><rect x="7.37" width="0.57" height="27.3" style="fill:#f8a705"/><rect x="7.94" width="0.57" height="27.3" style="fill:#f8a805"/><rect x="8.5" width="0.57" height="27.3" style="fill:#f8a906"/><rect x="9.07" width="0.57" height="27.3" style="fill:#f8aa06"/><rect x="9.64" width="0.57" height="27.3" style="fill:#f8ab06"/><rect x="10.2" width="0.57" height="27.3" style="fill:#f8ac07"/><rect x="10.77" width="0.57" height="27.3" style="fill:#f8ad07"/><rect x="11.34" width="0.57" height="27.3" style="fill:#f8ae07"/><rect x="11.9" width="0.57" height="27.3" style="fill:#f7b008"/><rect x="12.47" width="0.57" height="27.3" style="fill:#f7b108"/><rect x="13.04" width="0.57" height="27.3" style="fill:#f7b209"/><rect x="13.6" width="0.57" height="27.3" style="fill:#f7b309"/><rect x="14.17" width="0.57" height="27.3" style="fill:#f7b409"/><rect x="14.74" width="0.57" height="27.3" style="fill:#f7b50a"/><rect x="15.3" width="0.57" height="27.3" style="fill:#f7b60a"/><rect x="15.87" width="0.57" height="27.3" style="fill:#f6b70b"/><rect x="16.44" width="0.57" height="27.3" style="fill:#f6b80b"/><rect x="17" width="0.57" height="27.3" style="fill:#f6b90b"/><rect x="17.57" width="0.57" height="27.3" style="fill:#f6ba0c"/><rect x="18.14" width="0.57" height="27.3" style="fill:#f6bb0c"/><rect x="18.71" width="0.57" height="27.3" style="fill:#f6bc0d"/><rect x="19.27" width="0.57" height="27.3" style="fill:#f6bd0d"/><rect x="19.84" width="0.57" height="27.3" style="fill:#f6be0d"/><rect x="20.41" width="0.57" height="27.3" style="fill:#f5bf0e"/><rect x="20.97" width="0.57" height="27.3" style="fill:#f5c00e"/><rect x="21.54" width="0.57" height="27.3" style="fill:#f5c10f"/><rect x="22.11" width="0.57" height="27.3" style="fill:#f5c20f"/><rect x="22.67" width="0.57" height="27.3" style="fill:#f5c410"/><rect x="23.24" width="0.57" height="27.3" style="fill:#f5c510"/><rect x="23.81" width="0.57" height="27.3" style="fill:#f5c610"/><rect x="24.37" width="0.57" height="27.3" style="fill:#f4c711"/><rect x="24.94" width="0.57" height="27.3" style="fill:#f4c811"/><rect x="25.51" width="0.57" height="27.3" style="fill:#f4c912"/><rect x="26.07" width="0.57" height="27.3" style="fill:#f4ca12"/><path d="M26.64,27.3v0Z" transform="translate(0)" style="fill:#f4ca12"/></g><polygon points="22.39 12.14 18.01 9.56 13.63 12.14 13.63 0 22.39 0 22.39 12.14" style="fill:#1a1f71"/><rect x="4.18" y="5.15" width="6.29" height="2" style="fill:#1a1f71"/><rect x="4.18" y="10.15" width="6.29" height="2" style="fill:#1a1f71"/><rect x="4.03" y="15.15" width="18.29" height="2" style="fill:#1a1f71"/><rect x="4.03" y="20.15" width="18.29" height="2" style="fill:#1a1f71"/></g></g></svg>