<svg xmlns="http://www.w3.org/2000/svg" viewBox="0 0 116.25 37.55"><title>Asset 1</title><g id="Layer_2" data-name="Layer 2"><g id="图层_1" data-name="图层 1"><path d="M57.56.67,49.79,37h-9.4L48.16.67ZM97.08,24.11,102,10.48l2.84,13.63ZM107.56,37h8.69L108.66.67h-8a4.26,4.26,0,0,0-4,2.66L82.55,37h9.86l2-5.43h12ZM83,25.12c0-9.58-13.25-10.11-13.16-14.39,0-1.3,1.27-2.69,4-3.05a17.75,17.75,0,0,1,9.26,1.63l1.66-7.69A25.1,25.1,0,0,0,76,0C66.7,0,60.17,4.94,60.11,12c-.06,5.24,4.67,8.15,8.23,9.89s4.88,2.92,4.87,4.51c0,2.44-2.92,3.51-5.62,3.55a19.67,19.67,0,0,1-9.65-2.29l-1.7,8a28.69,28.69,0,0,0,10.44,1.93C76.56,37.55,83,32.68,83,25.12M44.13.67,28.91,37H19L11.5,8C11,6.21,10.65,5.55,9.26,4.81A39.08,39.08,0,0,0,0,1.72l.22-1h16a4.38,4.38,0,0,1,4.34,3.7l3.95,21L34.27.67Z" style="fill:#fff"/></g></g></svg>